{
  "accessors": [
    {
      "bufferView": 2,
      "componentType": 5126,
      "count": 864,
      "max": [
        29.713451385498047,
        242.76080322265625,
        76.81183624267578
      ],
      "min": [
        -29.713451385498047,
        -3.0517578125e-05,
        -76.81183624267578
      ],
      "type": "VEC3"
    },
    {
      "bufferView": 2,
      "byteOffset": 10368,
      "componentType": 5126,
      "count": 864,
      "max": [
        1.0,
        1.0,
        1.0
      ],
      "min": [
        -1.0,
        -1.0,
        -1.0
      ],
      "type": "VEC3"
    },
    {
      "bufferView": 3,
      "componentType": 5126,
      "count": 864,
      "max": [
        1.0,
        1.0,
        0.9807882905006409,
        1.0
      ],
      "min": [
        -1.0,
        -1.0,
        -1.0,
        -1.0
      ],
      "type": "VEC4"
    },
    {
      "bufferView": 1,
      "componentType": 5126,
      "count": 864,
      "max": [
        0.9933969378471375,
        0.9928138852119446
      ],
      "min": [
        0.007255688309669495,
        0.002903550863265991
      ],
      "type": "VEC2"
    },
    {
      "bufferView": 0,
      "componentType": 5125,
      "count": 3462,
      "type": "SCALAR"
    }
  ],
  "asset": {
    "extras": {
      "author": "Georg Klein (https://sketchfab.com/kleingeo)",
      "license": "CC-BY-4.0 (http://creativecommons.org/licenses/by/4.0/)",
      "source": "https://sketchfab.com/3d-models/game-boy-classic-0ae80019e6f046168923286d7e628f6f",
      "title": "Game Boy Classic"
    },
    "generator": "Sketchfab-12.67.0",
    "version": "2.0"
  },
  "bufferViews": [
    {
      "buffer": 0,
      "byteLength": 13848,
      "name": "floatBufferViews",
      "target": 34963
    },
    {
      "buffer": 0,
      "byteLength": 6912,
      "byteOffset": 13848,
      "byteStride": 8,
      "name": "floatBufferViews",
      "target": 34962
    },
    {
      "buffer": 0,
      "byteLength": 20736,
      "byteOffset": 20760,
      "byteStride": 12,
      "name": "floatBufferViews",
      "target": 34962
    },
    {
      "buffer": 0,
      "byteLength": 13824,
      "byteOffset": 41496,
      "byteStride": 16,
      "name": "floatBufferViews",
      "target": 34962
    }
  ],
  "buffers": [
    {
      "byteLength": 55320,
      "uri": "scene.bin"
    }
  ],
  "images": [
    {
      "uri": "textures/lambert1_baseColor.png"
    },
    {
      "uri": "textures/lambert1_metallicRoughness.png"
    },
    {
      "uri": "textures/lambert1_normal.png"
    }
  ],
  "materials": [
    {
      "alphaMode": "BLEND",
      "name": "lambert1",
      "normalTexture": {
        "index": 2
      },
      "occlusionTexture": {
        "index": 1
      },
      "pbrMetallicRoughness": {
        "baseColorTexture": {
          "index": 0
        },
        "metallicRoughnessTexture": {
          "index": 1
        }
      }
    }
  ],
  "meshes": [
    {
      "name": "SM_Gameboy_lambert1_0",
      "primitives": [
        {
          "attributes": {
            "NORMAL": 1,
            "POSITION": 0,
            "TANGENT": 2,
            "TEXCOORD_0": 3
          },
          "indices": 4,
          "material": 0,
          "mode": 4
        }
      ]
    }
  ],
  "nodes": [
    {
      "children": [
        1
      ],
      "matrix": [
        0.0010000000474974513,
        0.0,
        0.0,
        0.0,
        0.0,
        2.220446154715841e-19,
        -0.0010000000474974513,
        0.0,
        0.0,
        0.0010000000474974513,
        2.220446154715841e-19,
        0.0,
        0.0,
        0.0,
        0.0,
        1.0
      ],
      "name": "Sketchfab_model"
    },
    {
      "children": [
        2
      ],
      "matrix": [
        1.0,
        0.0,
        0.0,
        0.0,
        0.0,
        0.0,
        1.0,
        0.0,
        0.0,
        -1.0,
        0.0,
        0.0,
        0.0,
        0.0,
        0.0,
        1.0
      ],
      "name": "ed931da4118147d6940cbf2b7a779160.fbx"
    },
    {
      "children": [
        3
      ],
      "name": "RootNode"
    },
    {
      "children": [
        4
      ],
      "name": "SM_Gameboy"
    },
    {
      "mesh": 0,
      "name": "SM_Gameboy_lambert1_0"
    }
  ],
  "samplers": [
    {
      "magFilter": 9729,
      "minFilter": 9987,
      "wrapS": 10497,
      "wrapT": 10497
    }
  ],
  "scene": 0,
  "scenes": [
    {
      "name": "Sketchfab_Scene",
      "nodes": [
        0
      ]
    }
  ],
  "textures": [
    {
      "sampler": 0,
      "source": 0
    },
    {
      "sampler": 0,
      "source": 1
    },
    {
      "sampler": 0,
      "source": 2
    }
  ]
}
