<?xml version="1.0" encoding="UTF-8" standalone="no"?>
<svg
   sodipodi:docname="tres_shapes_stack_dark_mode.svg"
   id="svg5369"
   version="1.1"
   height="140"
   width="100"
   xml:space="preserve"
   inkscape:version="1.2 (dc2aeda, 2022-05-15)"
   viewBox="0 0 25 35"
   xmlns:inkscape="http://www.inkscape.org/namespaces/inkscape"
   xmlns:sodipodi="http://sodipodi.sourceforge.net/DTD/sodipodi-0.dtd"
   xmlns="http://www.w3.org/2000/svg"
   xmlns:svg="http://www.w3.org/2000/svg"><defs
     id="defs5373" /><sodipodi:namedview
     id="namedview5371"
     pagecolor="#ffffff"
     bordercolor="#000000"
     borderopacity="0.25"
     inkscape:showpageshadow="2"
     inkscape:pageopacity="0.0"
     inkscape:pagecheckerboard="0"
     inkscape:deskcolor="#d1d1d1"
     showgrid="true"
     inkscape:zoom="24.92"
     inkscape:cx="8.3667737"
     inkscape:cy="16.994382"
     inkscape:window-width="1390"
     inkscape:window-height="977"
     inkscape:window-x="153"
     inkscape:window-y="62"
     inkscape:window-maximized="0"
     inkscape:current-layer="svg5369"><inkscape:grid
       type="xygrid"
       id="grid5505"
       originx="-1.25"
       originy="6.875e-09" /></sodipodi:namedview><path
     fill="#82dbc5"
     d="m 7.248289,0.80357125 c 0.642857,-1.07142833 2.196429,-1.07142833 2.839285,0 L 17.101146,12.491786 A 1.6564285,1.6564285 0 0 1 15.680432,15 H 1.6554317 A 1.6564285,1.6564285 0 0 1 0.23578909,12.491786 Z"
     id="triangle" /><path
     id="square"
     style="fill:#dbdad2;fill-opacity:1"
     d="M 11.667143,10 H 23.332857 C 24.256454,10 25,10.743546 25,11.667143 V 23.332857 C 25,24.256454 24.256454,25 23.332857,25 H 11.667143 C 10.743546,25 10,24.256454 10,23.332857 V 11.667143 C 10,10.743546 10.743546,10 11.667143,10 Z" /><path
     id="circle"
     style="fill:#efac35"
     d="M 20.000001,27.5 A 7.500001,7.500001 0 0 1 12.5,35.000001 7.500001,7.500001 0 0 1 4.999999,27.5 7.500001,7.500001 0 0 1 12.5,19.999999 7.500001,7.500001 0 0 1 20.000001,27.5 Z" /></svg>
